<?xml version="1.0" encoding="utf-8"?>
<!-- Generator: Adobe Illustrator 25.0.0, SVG Export Plug-In . SVG Version: 6.00 Build 0)  -->
<svg version="1.1" id="katman_1" xmlns="http://www.w3.org/2000/svg" xmlns:xlink="http://www.w3.org/1999/xlink" x="0px" y="0px"
	 width="700px" height="700px" viewBox="0 0 700 700" style="enable-background:new 0 0 700 700;" xml:space="preserve">
<g id="Qsg1rx_1_">
	<g>
		<path d="M624.7,448.2c-23.3,80.3-105.6,176.5-239.3,190.2C261.3,651,140.7,577.3,96.2,460.7C50.8,341.6,94.7,221.4,170,156.6
			c-29.7,130.4,6.2,236.7,118.3,314.5C406.1,539.5,518,527.6,624.7,448.2z"/>
		<path d="M327.8,293.7c-3.2-11-6.4-21.9-9.8-32.9c-2.1-7-4.4-14-6.9-20.8c-3.7-9.9-11-16.5-20.9-19.6c-16.2-5.1-32.6-9.8-48.8-14.8
			c-1.2-0.4-2.4-0.9-5.4-1.9c7.6-2.2,13.6-3.9,19.5-5.7c11.5-3.5,23.1-7,34.6-10.6c11.5-3.6,18.8-11.5,22.4-22.8
			c4.9-15.5,9.5-31,14.3-46.5c0.4-1.3,0.9-2.6,2-5.5c1.2,3.7,2.1,5.9,2.7,8.2c4.1,13.5,8.2,26.9,12.1,40.4c4.3,15.1,14,24.3,29,28.4
			c13.7,3.8,27.4,7.9,41,11.9c2,0.6,4,1.3,5.9,3.2c-10.7,3.1-21.5,6.2-32.2,9.3c-6.5,1.9-12.9,4-19.3,6
			c-11.9,3.8-19.5,11.8-23.2,23.5c-4.5,14.3-8.8,28.8-13.2,43.2c-0.7,2.4-1.6,4.7-2.4,7.1C328.7,293.8,328.2,293.8,327.8,293.7z"/>
		<path d="M433.5,312.2c9.1-2.6,18.1-5.6,27.3-7.8c13.3-3.2,21.5-10.9,24.6-24.3c2.2-9.2,5.2-18.2,9.1-27.4c0.7,1.9,1.5,3.8,2.1,5.7
			c2.4,8.2,5,16.3,7.2,24.5c2.9,10.7,9.6,17.4,20.3,20.4c10.2,2.9,20.4,6,30.8,10.2c-2.6,0.9-5.3,1.8-8,2.7
			c-8.5,2.6-17.1,5.1-25.6,7.7c-8.4,2.6-13.8,8.1-16.5,16.5c-3.4,10.9-6.8,21.8-11.5,32.9c-1.8-6.1-4.3-12-5.3-18.2
			c-3.3-20.5-14.7-32.4-35.4-35.7c-6.5-1-12.8-3.6-19.2-5.5C433.5,313.3,433.5,312.8,433.5,312.2z"/>
		<path d="M523.9,132.3c-8.6,2.6-17.1,5.6-25.8,7.5c-14.9,3.2-23.4,11.9-26.7,26.6c-1.9,8.6-4.9,16.9-8.8,25.4
			c-1.7-5.7-3.6-11.5-5.2-17.2c-7.7-27.9-9.1-29.3-36.8-37c-6.1-1.7-12.1-3.5-18.3-6.5c4.4-1.3,8.8-2.6,13.2-4
			c6.8-2,13.7-3.9,20.5-6c8.4-2.6,14-7.9,16.5-16.4c3.4-10.9,6.8-21.8,11.4-32.9c0.7,1.9,1.3,3.8,2,5.7c2.7,8.7,5.4,17.4,7.9,26.1
			c2.6,9.1,8.4,15,17.6,17.6c8.9,2.6,17.9,5.2,26.8,7.8c2,0.6,4,1.2,6,1.9C524,131.4,523.9,131.8,523.9,132.3z"/>
		<path d="M259.6,301.9c10.7,0.2,18.7,8.7,18.3,19.1c-0.4,10.4-9,18.2-19.7,17.8c-10.2-0.4-18.1-9-17.7-19.1
			C240.9,309.5,249.3,301.6,259.6,301.9z"/>
		<path d="M355.4,423.4c0,6.5-5,11.8-11.4,11.8c-6.6,0.1-12-5.3-11.9-12c0.1-6.5,5.2-11.5,11.8-11.5
			C350.5,411.9,355.4,416.8,355.4,423.4z"/>
	</g>
</g>
</svg>
